{"title":"Alice In Wonderland 2010 TS XViD - IMAGiNE[ExtraTorrent]","uid":5434382,"size":1536021650,"categoryP":"video","categoryS":"movies","magnet":"?xt=urn:btih:c63e902f9981aeef626377e605f9db33b75cc096&amp;dn=Alice+In+Wonderland+2010+TS+XViD+-+IMAGiNE%5BExtraTorrent%5D&amp;tr=udp%3A%2F%2Ftracker.openbittorrent.com%3A80&amp;tr=udp%3A%2F%2Fopen.demonii.com%3A1337&amp;tr=udp%3A%2F%2Ftracker.coppersurfer.tk%3A6969&amp;tr=udp%3A%2F%2Fexodus.desync.com%3A6969","seeders":1,"leechers":0,"uploader":"raymondhome","files":-1,"time":1268537910,"description":"Love for All and Sharing is the first step to solving all the problems of humanity.\n\nWebsites I want to share.\n\n    &lt;a href=&quot;\nhttp://www.shareintl.org/&quot; rel=&quot;nofollow&quot; target=&quot;_NEW&quot;&gt;\nhttp://www.shareintl.org/&lt;/a&gt;\n\n    &lt;a href=&quot;\nhttp://www.lightmiddleway.com&quot; rel=&quot;nofollow&quot; target=&quot;_NEW&quot;&gt;\nhttp://www.lightmiddleway.com&lt;/a&gt;\n\n\nThank you very much\n\nNo credit for me...credit to EVERYONE for sharing\n &lt;a href=&quot;\nhttp://thepiratebay.se/user/raymondhome/&quot; rel=&quot;nofollow&quot; target=&quot;_NEW&quot;&gt;\nhttp://thepiratebay.se/user/raymondhome/&lt;/a&gt;\n\nPLOT\n19-year-old Alice returns to the magical world from her childhood adventure, where she reunites with her old friends and learns of her true destiny: to end the Red Queen's reign of terror.\n\nRuntime.......:1h 40mn\nVideo\nID : 0\nFormat : MPEG-4 Visual\nFormat profile : Advanced Simple@L5\nFormat settings, BVOP : Yes\nFormat settings, QPel : No\nFormat settings, GMC : No warppoints\nFormat settings, Matrix : Default (MPEG)\nMuxing mode : Packed bitstream\nCodec ID : XVID\nCodec ID/Hint : XviD\nDuration : 1h 40mn\nBit rate : 1 863 Kbps\nWidth : 704 pixels\nHeight : 368 pixels\nDisplay aspect ratio : 1.913\nFrame rate : 23.976 fps\nResolution : 24 bits\nColorimetry : 4:2:0\nScan type : Progressive\nBits/(Pixel*Frame) : 0.300\nStream size : 1.31 GiB (93%)\nWriting library : XviD 1.2.1 (UTC 2008-12-04)\nAudio\nID : 1\nFormat : MPEG Audio\nFormat version : Version 1\nFormat profile : Layer 3\nCodec ID : 55\nCodec ID/Hint : MP3\nDuration : 1h 40mn\nBit rate mode : Constant\nBit rate : 128 Kbps\nChannel(s) : 2 channels\nSampling rate : 48.0 KHz\nResolution : 16 bits\nStream size : 91.8 MiB (6%)\nAlignment : Split accross interleaves\nInterleave, duration : 42 ms (1.00 video frame)\nInterleave, preload duration : 500 ms\n\nIMAGiNE NOTES\nWell what can we say ....firstly we're a bit late releasing this, ran into a few problems with both video and audio, but we carried on and in the end got the result we wanted.\nVideo had to be rotated and leveled up, need the colours, contrast etc all tweaking so we did what needed to be done.\nAudio was pain in the ass.....spent hrs trying to get it right and in sync.\nOverall we're really pleased with the outcome .........So enjoy this really nice TS\n\ncredit IMAGiNE &amp; Shedevil BIG BIG BIG TIME &amp; to all the people who made it possible for me to share this with everyone\n\n*****help what we can with haiti or any other in need...the world is ONE big family*****","torrent":{"xt":"urn:btih:c63e902f9981aeef626377e605f9db33b75cc096","amp;dn":"Alice+In+Wonderland+2010+TS+XViD+-+IMAGiNE%5BExtraTorrent%5D","amp;tr":["udp%3A%2F%2Ftracker.openbittorrent.com%3A80","udp%3A%2F%2Fopen.demonii.com%3A1337","udp%3A%2F%2Ftracker.coppersurfer.tk%3A6969","udp%3A%2F%2Fexodus.desync.com%3A6969"],"infoHash":"c63e902f9981aeef626377e605f9db33b75cc096","infoHashBuffer":{"type":"Buffer","data":[198,62,144,47,153,129,174,239,98,99,119,230,5,249,219,51,183,92,192,150]},"announce":[],"urlList":[]}}